<mxfile host="app.diagrams.net" agent="Mozilla/5.0 (Windows NT 10.0; Win64; x64) AppleWebKit/537.36 (KHTML, like Gecko) Chrome/130.0.0.0 Safari/537.36" version="24.8.6">
  <diagram name="Page-1" id="yFD6POfyenrxKL7POlyT">
    <mxGraphModel grid="1" page="1" gridSize="10" guides="1" tooltips="1" connect="1" arrows="1" fold="1" pageScale="1" pageWidth="1100" pageHeight="850" math="0" shadow="0">
      <root>
        <mxCell id="0" />
        <mxCell id="1" parent="0" />
        <mxCell id="lB6UahmYKRmonX7YFgPr-1" value="" style="verticalLabelPosition=bottom;shadow=0;dashed=0;align=center;html=1;verticalAlign=top;shape=mxgraph.electrical.abstract.dac;rounded=0;" vertex="1" parent="1">
          <mxGeometry width="80" height="40" as="geometry" />
        </mxCell>
        <mxCell id="lB6UahmYKRmonX7YFgPr-2" value="vpeRx" style="text;html=1;align=center;verticalAlign=middle;whiteSpace=wrap;rounded=0;" vertex="1" parent="1">
          <mxGeometry y="5" width="60" height="30" as="geometry" />
        </mxCell>
        <mxCell id="lB6UahmYKRmonX7YFgPr-3" value="" style="verticalLabelPosition=bottom;shadow=0;dashed=0;align=center;html=1;verticalAlign=top;shape=mxgraph.electrical.abstract.dac;rounded=0;" vertex="1" parent="1">
          <mxGeometry y="720" width="80" height="40" as="geometry" />
        </mxCell>
        <mxCell id="lB6UahmYKRmonX7YFgPr-4" value="clock" style="text;html=1;align=center;verticalAlign=middle;whiteSpace=wrap;rounded=0;" vertex="1" parent="1">
          <mxGeometry y="725" width="60" height="30" as="geometry" />
        </mxCell>
        <mxCell id="lB6UahmYKRmonX7YFgPr-5" value="" style="verticalLabelPosition=bottom;shadow=0;dashed=0;align=center;html=1;verticalAlign=top;shape=mxgraph.electrical.abstract.dac;rounded=0;" vertex="1" parent="1">
          <mxGeometry y="800" width="80" height="40" as="geometry" />
        </mxCell>
        <mxCell id="lB6UahmYKRmonX7YFgPr-6" value="reset" style="text;html=1;align=center;verticalAlign=middle;whiteSpace=wrap;rounded=0;" vertex="1" parent="1">
          <mxGeometry y="805" width="60" height="30" as="geometry" />
        </mxCell>
        <mxCell id="lB6UahmYKRmonX7YFgPr-7" value="" style="endArrow=none;html=1;rounded=0;" edge="1" parent="1">
          <mxGeometry width="50" height="50" relative="1" as="geometry">
            <mxPoint x="80" y="740" as="sourcePoint" />
            <mxPoint x="120" y="740" as="targetPoint" />
          </mxGeometry>
        </mxCell>
        <mxCell id="lB6UahmYKRmonX7YFgPr-8" value="clock" style="text;html=1;align=center;verticalAlign=middle;whiteSpace=wrap;rounded=0;" vertex="1" parent="1">
          <mxGeometry x="120" y="725" width="30" height="30" as="geometry" />
        </mxCell>
        <mxCell id="lB6UahmYKRmonX7YFgPr-9" value="" style="endArrow=none;html=1;rounded=0;" edge="1" parent="1">
          <mxGeometry width="50" height="50" relative="1" as="geometry">
            <mxPoint x="80" y="820" as="sourcePoint" />
            <mxPoint x="120" y="820" as="targetPoint" />
          </mxGeometry>
        </mxCell>
        <mxCell id="lB6UahmYKRmonX7YFgPr-10" value="reset" style="text;html=1;align=center;verticalAlign=middle;whiteSpace=wrap;rounded=0;" vertex="1" parent="1">
          <mxGeometry x="120" y="805" width="30" height="30" as="geometry" />
        </mxCell>
        <mxCell id="lB6UahmYKRmonX7YFgPr-11" value="" style="rounded=0;whiteSpace=wrap;html=1;" vertex="1" parent="1">
          <mxGeometry x="180" y="-20" width="120" height="200" as="geometry" />
        </mxCell>
        <mxCell id="lB6UahmYKRmonX7YFgPr-12" value="VpeRx" style="text;html=1;align=center;verticalAlign=middle;whiteSpace=wrap;rounded=0;" vertex="1" parent="1">
          <mxGeometry x="240" y="160" width="60" height="20" as="geometry" />
        </mxCell>
        <mxCell id="lB6UahmYKRmonX7YFgPr-13" value="RX" style="text;html=1;align=center;verticalAlign=middle;whiteSpace=wrap;rounded=0;" vertex="1" parent="1">
          <mxGeometry x="210" y="-40" width="60" height="20" as="geometry" />
        </mxCell>
        <mxCell id="lB6UahmYKRmonX7YFgPr-14" value="vpeSerial" style="text;html=1;align=center;verticalAlign=middle;whiteSpace=wrap;rounded=0;" vertex="1" parent="1">
          <mxGeometry x="180" y="12.5" width="50" height="15" as="geometry" />
        </mxCell>
        <mxCell id="lB6UahmYKRmonX7YFgPr-15" value="data" style="text;html=1;align=center;verticalAlign=middle;whiteSpace=wrap;rounded=0;" vertex="1" parent="1">
          <mxGeometry x="260" y="10" width="40" height="20" as="geometry" />
        </mxCell>
        <mxCell id="lB6UahmYKRmonX7YFgPr-16" value="newDataEn" style="text;html=1;align=center;verticalAlign=middle;whiteSpace=wrap;rounded=0;" vertex="1" parent="1">
          <mxGeometry x="230" y="90" width="70" height="20" as="geometry" />
        </mxCell>
        <mxCell id="lB6UahmYKRmonX7YFgPr-17" value="frameEndEn" style="text;html=1;align=center;verticalAlign=middle;whiteSpace=wrap;rounded=0;" vertex="1" parent="1">
          <mxGeometry x="230" y="130" width="70" height="20" as="geometry" />
        </mxCell>
        <mxCell id="lB6UahmYKRmonX7YFgPr-18" value="" style="endArrow=none;html=1;rounded=0;" edge="1" parent="1">
          <mxGeometry width="50" height="50" relative="1" as="geometry">
            <mxPoint x="140" y="137" as="sourcePoint" />
            <mxPoint x="180" y="137" as="targetPoint" />
          </mxGeometry>
        </mxCell>
        <mxCell id="lB6UahmYKRmonX7YFgPr-19" value="clock" style="text;html=1;align=center;verticalAlign=middle;whiteSpace=wrap;rounded=0;" vertex="1" parent="1">
          <mxGeometry x="110" y="121" width="30" height="30" as="geometry" />
        </mxCell>
        <mxCell id="lB6UahmYKRmonX7YFgPr-20" value="" style="endArrow=none;html=1;rounded=0;" edge="1" parent="1">
          <mxGeometry width="50" height="50" relative="1" as="geometry">
            <mxPoint x="140" y="167" as="sourcePoint" />
            <mxPoint x="180" y="167" as="targetPoint" />
          </mxGeometry>
        </mxCell>
        <mxCell id="lB6UahmYKRmonX7YFgPr-21" value="reset" style="text;html=1;align=center;verticalAlign=middle;whiteSpace=wrap;rounded=0;" vertex="1" parent="1">
          <mxGeometry x="110" y="151" width="30" height="30" as="geometry" />
        </mxCell>
        <mxCell id="lB6UahmYKRmonX7YFgPr-22" value="clock" style="text;html=1;align=center;verticalAlign=middle;whiteSpace=wrap;rounded=0;" vertex="1" parent="1">
          <mxGeometry x="170" y="121" width="60" height="30" as="geometry" />
        </mxCell>
        <mxCell id="lB6UahmYKRmonX7YFgPr-23" value="reset" style="text;html=1;align=center;verticalAlign=middle;whiteSpace=wrap;rounded=0;" vertex="1" parent="1">
          <mxGeometry x="170" y="150" width="60" height="30" as="geometry" />
        </mxCell>
        <mxCell id="lB6UahmYKRmonX7YFgPr-25" value="" style="endArrow=none;html=1;rounded=0;" edge="1" parent="1">
          <mxGeometry width="50" height="50" relative="1" as="geometry">
            <mxPoint x="80" y="20.5" as="sourcePoint" />
            <mxPoint x="180" y="20" as="targetPoint" />
          </mxGeometry>
        </mxCell>
        <mxCell id="lB6UahmYKRmonX7YFgPr-26" value="" style="endArrow=none;html=1;rounded=0;strokeWidth=3;" edge="1" parent="1">
          <mxGeometry width="50" height="50" relative="1" as="geometry">
            <mxPoint x="300" y="20" as="sourcePoint" />
            <mxPoint x="370" y="20" as="targetPoint" />
          </mxGeometry>
        </mxCell>
        <mxCell id="lB6UahmYKRmonX7YFgPr-27" value="" style="endArrow=none;html=1;rounded=0;" edge="1" parent="1">
          <mxGeometry width="50" height="50" relative="1" as="geometry">
            <mxPoint x="314" y="30" as="sourcePoint" />
            <mxPoint x="324" y="10" as="targetPoint" />
          </mxGeometry>
        </mxCell>
        <mxCell id="lB6UahmYKRmonX7YFgPr-28" value="8" style="text;html=1;align=center;verticalAlign=middle;whiteSpace=wrap;rounded=0;" vertex="1" parent="1">
          <mxGeometry x="310" y="7" width="10" height="10" as="geometry" />
        </mxCell>
        <mxCell id="lB6UahmYKRmonX7YFgPr-29" value="" style="rounded=0;whiteSpace=wrap;html=1;" vertex="1" parent="1">
          <mxGeometry x="820" width="120" height="160" as="geometry" />
        </mxCell>
        <mxCell id="lB6UahmYKRmonX7YFgPr-33" value="" style="endArrow=none;html=1;rounded=0;" edge="1" parent="1">
          <mxGeometry width="50" height="50" relative="1" as="geometry">
            <mxPoint x="300" y="99.66" as="sourcePoint" />
            <mxPoint x="820" y="20" as="targetPoint" />
            <Array as="points">
              <mxPoint x="510" y="100" />
              <mxPoint x="510" y="20" />
            </Array>
          </mxGeometry>
        </mxCell>
        <mxCell id="lB6UahmYKRmonX7YFgPr-35" value="vpeData" style="text;html=1;align=center;verticalAlign=middle;whiteSpace=wrap;rounded=0;" vertex="1" parent="1">
          <mxGeometry x="540" y="-7.5" width="60" height="20" as="geometry" />
        </mxCell>
        <mxCell id="lB6UahmYKRmonX7YFgPr-36" value="" style="endArrow=none;html=1;rounded=0;" edge="1" parent="1">
          <mxGeometry width="50" height="50" relative="1" as="geometry">
            <mxPoint x="300" y="140" as="sourcePoint" />
            <mxPoint x="820" y="40" as="targetPoint" />
            <Array as="points">
              <mxPoint x="520" y="140" />
              <mxPoint x="520" y="40" />
            </Array>
          </mxGeometry>
        </mxCell>
        <mxCell id="lB6UahmYKRmonX7YFgPr-37" value="CONTROL" style="text;html=1;align=center;verticalAlign=middle;whiteSpace=wrap;rounded=0;" vertex="1" parent="1">
          <mxGeometry x="850" y="-30" width="60" height="30" as="geometry" />
        </mxCell>
        <mxCell id="lB6UahmYKRmonX7YFgPr-38" value="" style="rounded=0;whiteSpace=wrap;html=1;" vertex="1" parent="1">
          <mxGeometry x="1291" y="30" width="120" height="90" as="geometry" />
        </mxCell>
        <mxCell id="lB6UahmYKRmonX7YFgPr-39" value="TIMEBASE_REGISTER" style="text;html=1;align=center;verticalAlign=middle;whiteSpace=wrap;rounded=0;" vertex="1" parent="1">
          <mxGeometry x="1288" width="126" height="30" as="geometry" />
        </mxCell>
        <mxCell id="lB6UahmYKRmonX7YFgPr-40" value="clock" style="text;html=1;align=center;verticalAlign=middle;whiteSpace=wrap;rounded=0;" vertex="1" parent="1">
          <mxGeometry x="1200" y="85" width="50" height="20" as="geometry" />
        </mxCell>
        <mxCell id="lB6UahmYKRmonX7YFgPr-41" value="" style="endArrow=none;html=1;rounded=0;entryX=0;entryY=0.5;entryDx=0;entryDy=0;" edge="1" parent="1">
          <mxGeometry width="50" height="50" relative="1" as="geometry">
            <mxPoint x="1240" y="95" as="sourcePoint" />
            <mxPoint x="1290" y="95" as="targetPoint" />
          </mxGeometry>
        </mxCell>
        <mxCell id="lB6UahmYKRmonX7YFgPr-42" value="reset" style="text;html=1;align=center;verticalAlign=middle;whiteSpace=wrap;rounded=0;" vertex="1" parent="1">
          <mxGeometry x="1200" y="105" width="50" height="20" as="geometry" />
        </mxCell>
        <mxCell id="lB6UahmYKRmonX7YFgPr-43" value="" style="endArrow=none;html=1;rounded=0;entryX=0;entryY=0.5;entryDx=0;entryDy=0;" edge="1" parent="1">
          <mxGeometry width="50" height="50" relative="1" as="geometry">
            <mxPoint x="1240" y="115" as="sourcePoint" />
            <mxPoint x="1290" y="115" as="targetPoint" />
          </mxGeometry>
        </mxCell>
        <mxCell id="lB6UahmYKRmonX7YFgPr-44" value="shiftInTimebaseEn" style="text;html=1;align=center;verticalAlign=middle;whiteSpace=wrap;rounded=0;" vertex="1" parent="1">
          <mxGeometry x="1190" y="50" width="101" height="10" as="geometry" />
        </mxCell>
        <mxCell id="lB6UahmYKRmonX7YFgPr-45" value="loadTimebaseLengthEn" style="text;html=1;align=center;verticalAlign=middle;whiteSpace=wrap;rounded=0;" vertex="1" parent="1">
          <mxGeometry x="1160" y="70" width="130" height="10" as="geometry" />
        </mxCell>
        <mxCell id="lB6UahmYKRmonX7YFgPr-46" value="timebaseNs" style="text;html=1;align=center;verticalAlign=middle;whiteSpace=wrap;rounded=0;" vertex="1" parent="1">
          <mxGeometry x="1415.25" y="45" width="60" height="10" as="geometry" />
        </mxCell>
        <mxCell id="lB6UahmYKRmonX7YFgPr-47" value="timebaseLoadedMode" style="text;html=1;align=center;verticalAlign=middle;whiteSpace=wrap;rounded=0;" vertex="1" parent="1">
          <mxGeometry x="1414.5" y="70" width="119" height="10" as="geometry" />
        </mxCell>
        <mxCell id="lB6UahmYKRmonX7YFgPr-48" value="" style="rounded=0;whiteSpace=wrap;html=1;" vertex="1" parent="1">
          <mxGeometry x="1295.25" y="165" width="120" height="90" as="geometry" />
        </mxCell>
        <mxCell id="lB6UahmYKRmonX7YFgPr-49" value="COUNT_REGISTER" style="text;html=1;align=center;verticalAlign=middle;whiteSpace=wrap;rounded=0;" vertex="1" parent="1">
          <mxGeometry x="1292.25" y="135" width="126" height="30" as="geometry" />
        </mxCell>
        <mxCell id="lB6UahmYKRmonX7YFgPr-50" value="clock" style="text;html=1;align=center;verticalAlign=middle;whiteSpace=wrap;rounded=0;" vertex="1" parent="1">
          <mxGeometry x="1204.25" y="220" width="50" height="20" as="geometry" />
        </mxCell>
        <mxCell id="lB6UahmYKRmonX7YFgPr-51" value="" style="endArrow=none;html=1;rounded=0;entryX=0;entryY=0.5;entryDx=0;entryDy=0;" edge="1" parent="1">
          <mxGeometry width="50" height="50" relative="1" as="geometry">
            <mxPoint x="1244.25" y="230" as="sourcePoint" />
            <mxPoint x="1294.25" y="230" as="targetPoint" />
          </mxGeometry>
        </mxCell>
        <mxCell id="lB6UahmYKRmonX7YFgPr-52" value="reset" style="text;html=1;align=center;verticalAlign=middle;whiteSpace=wrap;rounded=0;" vertex="1" parent="1">
          <mxGeometry x="1204.25" y="240" width="50" height="20" as="geometry" />
        </mxCell>
        <mxCell id="lB6UahmYKRmonX7YFgPr-53" value="" style="endArrow=none;html=1;rounded=0;entryX=0;entryY=0.5;entryDx=0;entryDy=0;" edge="1" parent="1">
          <mxGeometry width="50" height="50" relative="1" as="geometry">
            <mxPoint x="1244.25" y="250" as="sourcePoint" />
            <mxPoint x="1294.25" y="250" as="targetPoint" />
          </mxGeometry>
        </mxCell>
        <mxCell id="lB6UahmYKRmonX7YFgPr-54" value="shiftInCountEn" style="text;html=1;align=center;verticalAlign=middle;whiteSpace=wrap;rounded=0;" vertex="1" parent="1">
          <mxGeometry x="1204.25" y="185" width="91" height="10" as="geometry" />
        </mxCell>
        <mxCell id="lB6UahmYKRmonX7YFgPr-55" value="loadCountLengthEn" style="text;html=1;align=center;verticalAlign=middle;whiteSpace=wrap;rounded=0;" vertex="1" parent="1">
          <mxGeometry x="1190" y="205" width="104.25" height="10" as="geometry" />
        </mxCell>
        <mxCell id="lB6UahmYKRmonX7YFgPr-56" value="" style="endArrow=none;html=1;rounded=0;strokeWidth=3;" edge="1" parent="1">
          <mxGeometry width="50" height="50" relative="1" as="geometry">
            <mxPoint x="1415.25" y="185" as="sourcePoint" />
            <mxPoint x="1474.25" y="185" as="targetPoint" />
          </mxGeometry>
        </mxCell>
        <mxCell id="lB6UahmYKRmonX7YFgPr-57" value="dataCount" style="text;html=1;align=center;verticalAlign=middle;whiteSpace=wrap;rounded=0;" vertex="1" parent="1">
          <mxGeometry x="1477.75" y="180" width="60" height="10" as="geometry" />
        </mxCell>
        <mxCell id="lB6UahmYKRmonX7YFgPr-58" value="countLoadedMode" style="text;html=1;align=center;verticalAlign=middle;whiteSpace=wrap;rounded=0;" vertex="1" parent="1">
          <mxGeometry x="1425.38" y="205" width="97.25" height="10" as="geometry" />
        </mxCell>
        <mxCell id="lB6UahmYKRmonX7YFgPr-59" value="vpeData" style="text;html=1;align=center;verticalAlign=middle;whiteSpace=wrap;rounded=0;" vertex="1" parent="1">
          <mxGeometry x="1190" y="35" width="60" height="10" as="geometry" />
        </mxCell>
        <mxCell id="lB6UahmYKRmonX7YFgPr-60" value="" style="endArrow=none;html=1;rounded=0;" edge="1" parent="1">
          <mxGeometry width="50" height="50" relative="1" as="geometry">
            <mxPoint x="1264" y="53" as="sourcePoint" />
            <mxPoint x="1274" y="33" as="targetPoint" />
          </mxGeometry>
        </mxCell>
        <mxCell id="lB6UahmYKRmonX7YFgPr-61" value="8" style="text;html=1;align=center;verticalAlign=middle;whiteSpace=wrap;rounded=0;" vertex="1" parent="1">
          <mxGeometry x="1260" y="30" width="10" height="10" as="geometry" />
        </mxCell>
        <mxCell id="lB6UahmYKRmonX7YFgPr-62" value="" style="endArrow=none;html=1;rounded=0;strokeWidth=3;" edge="1" parent="1">
          <mxGeometry width="50" height="50" relative="1" as="geometry">
            <mxPoint x="1250" y="42" as="sourcePoint" />
            <mxPoint x="1290" y="42" as="targetPoint" />
          </mxGeometry>
        </mxCell>
        <mxCell id="lB6UahmYKRmonX7YFgPr-63" value="vpeData" style="text;html=1;align=center;verticalAlign=middle;whiteSpace=wrap;rounded=0;" vertex="1" parent="1">
          <mxGeometry x="1194.25" y="170" width="60" height="10" as="geometry" />
        </mxCell>
        <mxCell id="lB6UahmYKRmonX7YFgPr-64" value="" style="endArrow=none;html=1;rounded=0;" edge="1" parent="1">
          <mxGeometry width="50" height="50" relative="1" as="geometry">
            <mxPoint x="1268.25" y="188" as="sourcePoint" />
            <mxPoint x="1278.25" y="168" as="targetPoint" />
          </mxGeometry>
        </mxCell>
        <mxCell id="lB6UahmYKRmonX7YFgPr-65" value="8" style="text;html=1;align=center;verticalAlign=middle;whiteSpace=wrap;rounded=0;" vertex="1" parent="1">
          <mxGeometry x="1264.25" y="165" width="10" height="10" as="geometry" />
        </mxCell>
        <mxCell id="lB6UahmYKRmonX7YFgPr-66" value="" style="endArrow=none;html=1;rounded=0;strokeWidth=3;" edge="1" parent="1">
          <mxGeometry width="50" height="50" relative="1" as="geometry">
            <mxPoint x="1254.25" y="177" as="sourcePoint" />
            <mxPoint x="1294.25" y="177" as="targetPoint" />
          </mxGeometry>
        </mxCell>
        <mxCell id="lB6UahmYKRmonX7YFgPr-67" value="" style="endArrow=none;html=1;rounded=0;" edge="1" parent="1">
          <mxGeometry width="50" height="50" relative="1" as="geometry">
            <mxPoint x="940" y="10" as="sourcePoint" />
            <mxPoint x="1291" y="64" as="targetPoint" />
            <Array as="points">
              <mxPoint x="1120" y="10" />
              <mxPoint x="1120" y="64" />
            </Array>
          </mxGeometry>
        </mxCell>
        <mxCell id="lB6UahmYKRmonX7YFgPr-68" value="" style="endArrow=none;html=1;rounded=0;" edge="1" parent="1">
          <mxGeometry width="50" height="50" relative="1" as="geometry">
            <mxPoint x="941" y="19" as="sourcePoint" />
            <mxPoint x="1291" y="85" as="targetPoint" />
            <Array as="points">
              <mxPoint x="1110" y="20" />
              <mxPoint x="1110" y="85" />
            </Array>
          </mxGeometry>
        </mxCell>
        <mxCell id="lB6UahmYKRmonX7YFgPr-70" value="" style="endArrow=none;html=1;rounded=0;" edge="1" parent="1">
          <mxGeometry width="50" height="50" relative="1" as="geometry">
            <mxPoint x="940" y="30" as="sourcePoint" />
            <mxPoint x="1295.25" y="195" as="targetPoint" />
            <Array as="points">
              <mxPoint x="1100" y="30" />
              <mxPoint x="1100" y="195" />
            </Array>
          </mxGeometry>
        </mxCell>
        <mxCell id="lB6UahmYKRmonX7YFgPr-72" value="" style="endArrow=none;html=1;rounded=0;" edge="1" parent="1">
          <mxGeometry width="50" height="50" relative="1" as="geometry">
            <mxPoint x="940" y="40" as="sourcePoint" />
            <mxPoint x="1295.25" y="215" as="targetPoint" />
            <Array as="points">
              <mxPoint x="1090" y="40" />
              <mxPoint x="1090" y="215" />
            </Array>
          </mxGeometry>
        </mxCell>
        <mxCell id="lB6UahmYKRmonX7YFgPr-73" value="" style="endArrow=none;html=1;rounded=0;" edge="1" parent="1">
          <mxGeometry width="50" height="50" relative="1" as="geometry">
            <mxPoint x="1411" y="55" as="sourcePoint" />
            <mxPoint x="1510" y="55" as="targetPoint" />
          </mxGeometry>
        </mxCell>
        <mxCell id="lB6UahmYKRmonX7YFgPr-74" value="x" style="text;html=1;align=center;verticalAlign=middle;whiteSpace=wrap;rounded=0;" vertex="1" parent="1">
          <mxGeometry x="1506" y="44" width="10" height="20" as="geometry" />
        </mxCell>
        <mxCell id="lB6UahmYKRmonX7YFgPr-75" value="" style="endArrow=none;html=1;rounded=0;" edge="1" parent="1">
          <mxGeometry width="50" height="50" relative="1" as="geometry">
            <mxPoint x="1411" y="90" as="sourcePoint" />
            <mxPoint x="820" y="60" as="targetPoint" />
            <Array as="points">
              <mxPoint x="1540" y="90" />
              <mxPoint x="1540" y="-80" />
              <mxPoint x="760" y="-80" />
              <mxPoint x="760" y="60" />
            </Array>
          </mxGeometry>
        </mxCell>
        <mxCell id="lB6UahmYKRmonX7YFgPr-77" value="" style="endArrow=none;html=1;rounded=0;" edge="1" parent="1">
          <mxGeometry width="50" height="50" relative="1" as="geometry">
            <mxPoint x="1415.25" y="225" as="sourcePoint" />
            <mxPoint x="820" y="70" as="targetPoint" />
            <Array as="points">
              <mxPoint x="1560" y="225" />
              <mxPoint x="1560" y="-90" />
              <mxPoint x="750" y="-90" />
              <mxPoint x="750" y="70" />
            </Array>
          </mxGeometry>
        </mxCell>
        <mxCell id="BuyT55-vh_InaUNFN4G4-1" value="" style="rounded=0;whiteSpace=wrap;html=1;" vertex="1" parent="1">
          <mxGeometry x="370" width="120" height="90" as="geometry" />
        </mxCell>
        <mxCell id="BuyT55-vh_InaUNFN4G4-3" value="" style="endArrow=none;html=1;rounded=0;strokeWidth=3;" edge="1" parent="1">
          <mxGeometry width="50" height="50" relative="1" as="geometry">
            <mxPoint x="490" y="5" as="sourcePoint" />
            <mxPoint x="540" y="5" as="targetPoint" />
          </mxGeometry>
        </mxCell>
        <mxCell id="BuyT55-vh_InaUNFN4G4-4" value="DATA_LATCH" style="text;html=1;align=center;verticalAlign=middle;whiteSpace=wrap;rounded=0;" vertex="1" parent="1">
          <mxGeometry x="390" y="-20" width="80" height="20" as="geometry" />
        </mxCell>
        <mxCell id="BuyT55-vh_InaUNFN4G4-6" value="" style="endArrow=none;html=1;rounded=0;" edge="1" parent="1">
          <mxGeometry width="50" height="50" relative="1" as="geometry">
            <mxPoint x="310" y="100" as="sourcePoint" />
            <mxPoint x="370" y="40" as="targetPoint" />
            <Array as="points">
              <mxPoint x="310" y="40" />
            </Array>
          </mxGeometry>
        </mxCell>
        <mxCell id="BuyT55-vh_InaUNFN4G4-7" value="" style="endArrow=none;html=1;rounded=0;" edge="1" parent="1">
          <mxGeometry width="50" height="50" relative="1" as="geometry">
            <mxPoint x="350" y="51" as="sourcePoint" />
            <mxPoint x="370" y="51" as="targetPoint" />
          </mxGeometry>
        </mxCell>
        <mxCell id="BuyT55-vh_InaUNFN4G4-8" value="clock" style="text;html=1;align=center;verticalAlign=middle;whiteSpace=wrap;rounded=0;" vertex="1" parent="1">
          <mxGeometry x="320" y="35" width="30" height="30" as="geometry" />
        </mxCell>
        <mxCell id="BuyT55-vh_InaUNFN4G4-9" value="" style="endArrow=none;html=1;rounded=0;" edge="1" parent="1">
          <mxGeometry width="50" height="50" relative="1" as="geometry">
            <mxPoint x="350" y="81" as="sourcePoint" />
            <mxPoint x="370" y="81" as="targetPoint" />
          </mxGeometry>
        </mxCell>
        <mxCell id="BuyT55-vh_InaUNFN4G4-10" value="reset" style="text;html=1;align=center;verticalAlign=middle;whiteSpace=wrap;rounded=0;" vertex="1" parent="1">
          <mxGeometry x="320" y="65" width="30" height="30" as="geometry" />
        </mxCell>
        <mxCell id="BuyT55-vh_InaUNFN4G4-11" value="" style="ellipse;whiteSpace=wrap;html=1;aspect=fixed;fillColor=#000000;" vertex="1" parent="1">
          <mxGeometry x="307" y="97" width="6" height="6" as="geometry" />
        </mxCell>
        <mxCell id="BuyT55-vh_InaUNFN4G4-12" value="" style="rounded=0;whiteSpace=wrap;html=1;" vertex="1" parent="1">
          <mxGeometry x="1295.25" y="320" width="120" height="90" as="geometry" />
        </mxCell>
        <mxCell id="BuyT55-vh_InaUNFN4G4-13" value="TIMER" style="text;html=1;align=center;verticalAlign=middle;whiteSpace=wrap;rounded=0;" vertex="1" parent="1">
          <mxGeometry x="1330.25" y="300" width="50" height="20" as="geometry" />
        </mxCell>
        <mxCell id="BuyT55-vh_InaUNFN4G4-14" value="clock" style="text;html=1;align=center;verticalAlign=middle;whiteSpace=wrap;rounded=0;" vertex="1" parent="1">
          <mxGeometry x="1205.25" y="370" width="50" height="20" as="geometry" />
        </mxCell>
        <mxCell id="BuyT55-vh_InaUNFN4G4-15" value="" style="endArrow=none;html=1;rounded=0;entryX=0;entryY=0.5;entryDx=0;entryDy=0;" edge="1" parent="1">
          <mxGeometry width="50" height="50" relative="1" as="geometry">
            <mxPoint x="1245.25" y="380" as="sourcePoint" />
            <mxPoint x="1295.25" y="380" as="targetPoint" />
          </mxGeometry>
        </mxCell>
        <mxCell id="BuyT55-vh_InaUNFN4G4-16" value="reset" style="text;html=1;align=center;verticalAlign=middle;whiteSpace=wrap;rounded=0;" vertex="1" parent="1">
          <mxGeometry x="1205.25" y="390" width="50" height="20" as="geometry" />
        </mxCell>
        <mxCell id="BuyT55-vh_InaUNFN4G4-17" value="" style="endArrow=none;html=1;rounded=0;entryX=0;entryY=0.5;entryDx=0;entryDy=0;" edge="1" parent="1">
          <mxGeometry width="50" height="50" relative="1" as="geometry">
            <mxPoint x="1245.25" y="400" as="sourcePoint" />
            <mxPoint x="1295.25" y="400" as="targetPoint" />
          </mxGeometry>
        </mxCell>
        <mxCell id="BuyT55-vh_InaUNFN4G4-18" value="" style="endArrow=none;html=1;rounded=0;" edge="1" parent="1">
          <mxGeometry width="50" height="50" relative="1" as="geometry">
            <mxPoint x="940" y="50" as="sourcePoint" />
            <mxPoint x="1295.25" y="330" as="targetPoint" />
            <Array as="points">
              <mxPoint x="1080" y="50" />
              <mxPoint x="1080" y="330" />
            </Array>
          </mxGeometry>
        </mxCell>
        <mxCell id="BuyT55-vh_InaUNFN4G4-19" value="timerStartEn" style="text;html=1;align=center;verticalAlign=middle;whiteSpace=wrap;rounded=0;" vertex="1" parent="1">
          <mxGeometry x="1225.25" y="310" width="70" height="20" as="geometry" />
        </mxCell>
        <mxCell id="BuyT55-vh_InaUNFN4G4-20" value="" style="endArrow=none;html=1;rounded=0;" edge="1" parent="1">
          <mxGeometry width="50" height="50" relative="1" as="geometry">
            <mxPoint x="940" y="60" as="sourcePoint" />
            <mxPoint x="1295.25" y="350" as="targetPoint" />
            <Array as="points">
              <mxPoint x="1070" y="60" />
              <mxPoint x="1070" y="350" />
            </Array>
          </mxGeometry>
        </mxCell>
        <mxCell id="BuyT55-vh_InaUNFN4G4-21" value="timerStopEn" style="text;html=1;align=center;verticalAlign=middle;whiteSpace=wrap;rounded=0;" vertex="1" parent="1">
          <mxGeometry x="1225.25" y="330" width="70" height="20" as="geometry" />
        </mxCell>
        <mxCell id="BuyT55-vh_InaUNFN4G4-23" value="" style="endArrow=none;html=1;rounded=0;strokeWidth=3;" edge="1" parent="1">
          <mxGeometry width="50" height="50" relative="1" as="geometry">
            <mxPoint x="1415.25" y="330" as="sourcePoint" />
            <mxPoint x="1610" y="330" as="targetPoint" />
          </mxGeometry>
        </mxCell>
        <mxCell id="BuyT55-vh_InaUNFN4G4-24" value="" style="endArrow=none;html=1;rounded=0;" edge="1" parent="1">
          <mxGeometry width="50" height="50" relative="1" as="geometry">
            <mxPoint x="1489" y="340" as="sourcePoint" />
            <mxPoint x="1499" y="320" as="targetPoint" />
          </mxGeometry>
        </mxCell>
        <mxCell id="BuyT55-vh_InaUNFN4G4-25" value="48" style="text;html=1;align=center;verticalAlign=middle;whiteSpace=wrap;rounded=0;" vertex="1" parent="1">
          <mxGeometry x="1485" y="317" width="10" height="10" as="geometry" />
        </mxCell>
        <mxCell id="BuyT55-vh_InaUNFN4G4-26" value="timerCycles" style="text;html=1;align=center;verticalAlign=middle;whiteSpace=wrap;rounded=0;" vertex="1" parent="1">
          <mxGeometry x="1516" y="317" width="70" height="10" as="geometry" />
        </mxCell>
        <mxCell id="BuyT55-vh_InaUNFN4G4-28" value="" style="rounded=0;whiteSpace=wrap;html=1;" vertex="1" parent="1">
          <mxGeometry x="1610" y="260" width="120" height="147" as="geometry" />
        </mxCell>
        <mxCell id="BuyT55-vh_InaUNFN4G4-29" value="dataCount" style="text;html=1;align=center;verticalAlign=middle;whiteSpace=wrap;rounded=0;" vertex="1" parent="1">
          <mxGeometry x="1516" y="343.5" width="60" height="10" as="geometry" />
        </mxCell>
        <mxCell id="BuyT55-vh_InaUNFN4G4-30" value="" style="endArrow=none;html=1;rounded=0;strokeWidth=3;" edge="1" parent="1">
          <mxGeometry width="50" height="50" relative="1" as="geometry">
            <mxPoint x="1576" y="350" as="sourcePoint" />
            <mxPoint x="1610" y="350" as="targetPoint" />
          </mxGeometry>
        </mxCell>
        <mxCell id="BuyT55-vh_InaUNFN4G4-31" value="HEADER_GENERATOR" style="text;html=1;align=center;verticalAlign=middle;whiteSpace=wrap;rounded=0;" vertex="1" parent="1">
          <mxGeometry x="1600" y="240" width="140" height="20" as="geometry" />
        </mxCell>
        <mxCell id="BuyT55-vh_InaUNFN4G4-32" value="" style="endArrow=none;html=1;rounded=0;" edge="1" parent="1">
          <mxGeometry width="50" height="50" relative="1" as="geometry">
            <mxPoint x="940" y="70" as="sourcePoint" />
            <mxPoint x="1610" y="280" as="targetPoint" />
            <Array as="points">
              <mxPoint x="1060" y="70" />
              <mxPoint x="1060" y="280" />
            </Array>
          </mxGeometry>
        </mxCell>
        <mxCell id="BuyT55-vh_InaUNFN4G4-33" value="" style="endArrow=none;html=1;rounded=0;" edge="1" parent="1">
          <mxGeometry width="50" height="50" relative="1" as="geometry">
            <mxPoint x="940" y="80" as="sourcePoint" />
            <mxPoint x="1610" y="300" as="targetPoint" />
            <Array as="points">
              <mxPoint x="1050" y="80" />
              <mxPoint x="1050" y="300" />
            </Array>
          </mxGeometry>
        </mxCell>
        <mxCell id="BuyT55-vh_InaUNFN4G4-35" value="clock" style="text;html=1;align=center;verticalAlign=middle;whiteSpace=wrap;rounded=0;" vertex="1" parent="1">
          <mxGeometry x="1520" y="367" width="50" height="20" as="geometry" />
        </mxCell>
        <mxCell id="BuyT55-vh_InaUNFN4G4-36" value="" style="endArrow=none;html=1;rounded=0;entryX=0;entryY=0.5;entryDx=0;entryDy=0;" edge="1" parent="1">
          <mxGeometry width="50" height="50" relative="1" as="geometry">
            <mxPoint x="1560" y="377" as="sourcePoint" />
            <mxPoint x="1610" y="377" as="targetPoint" />
          </mxGeometry>
        </mxCell>
        <mxCell id="BuyT55-vh_InaUNFN4G4-37" value="reset" style="text;html=1;align=center;verticalAlign=middle;whiteSpace=wrap;rounded=0;" vertex="1" parent="1">
          <mxGeometry x="1520" y="387" width="50" height="20" as="geometry" />
        </mxCell>
        <mxCell id="BuyT55-vh_InaUNFN4G4-38" value="" style="endArrow=none;html=1;rounded=0;entryX=0;entryY=0.5;entryDx=0;entryDy=0;" edge="1" parent="1">
          <mxGeometry width="50" height="50" relative="1" as="geometry">
            <mxPoint x="1560" y="397" as="sourcePoint" />
            <mxPoint x="1610" y="397" as="targetPoint" />
          </mxGeometry>
        </mxCell>
        <mxCell id="BuyT55-vh_InaUNFN4G4-39" value="headerLoadEn" style="text;html=1;align=center;verticalAlign=middle;whiteSpace=wrap;rounded=0;" vertex="1" parent="1">
          <mxGeometry x="1530" y="270" width="80" height="10" as="geometry" />
        </mxCell>
        <mxCell id="BuyT55-vh_InaUNFN4G4-40" value="headerNextEn" style="text;html=1;align=center;verticalAlign=middle;whiteSpace=wrap;rounded=0;" vertex="1" parent="1">
          <mxGeometry x="1530" y="290" width="81" height="10" as="geometry" />
        </mxCell>
        <mxCell id="BuyT55-vh_InaUNFN4G4-41" value="" style="endArrow=none;html=1;rounded=0;" edge="1" parent="1">
          <mxGeometry width="50" height="50" relative="1" as="geometry">
            <mxPoint x="1730" y="280" as="sourcePoint" />
            <mxPoint x="820" y="80" as="targetPoint" />
            <Array as="points">
              <mxPoint x="1880" y="280" />
              <mxPoint x="1880" y="-100" />
              <mxPoint x="740" y="-100" />
              <mxPoint x="740" y="80" />
            </Array>
          </mxGeometry>
        </mxCell>
        <mxCell id="BuyT55-vh_InaUNFN4G4-42" value="headerCompleteMode" style="text;html=1;align=center;verticalAlign=middle;whiteSpace=wrap;rounded=0;" vertex="1" parent="1">
          <mxGeometry x="1740" y="265" width="130" height="15" as="geometry" />
        </mxCell>
        <mxCell id="BuyT55-vh_InaUNFN4G4-43" value="" style="rounded=0;whiteSpace=wrap;html=1;" vertex="1" parent="1">
          <mxGeometry x="1268" y="500" width="120" height="140" as="geometry" />
        </mxCell>
        <mxCell id="BuyT55-vh_InaUNFN4G4-44" value="vpeData" style="text;html=1;align=center;verticalAlign=middle;whiteSpace=wrap;rounded=0;" vertex="1" parent="1">
          <mxGeometry x="1818" y="663.5" width="60" height="10" as="geometry" />
        </mxCell>
        <mxCell id="BuyT55-vh_InaUNFN4G4-45" value="" style="endArrow=none;html=1;rounded=0;" edge="1" parent="1">
          <mxGeometry width="50" height="50" relative="1" as="geometry">
            <mxPoint x="1892" y="681.5" as="sourcePoint" />
            <mxPoint x="1902" y="661.5" as="targetPoint" />
          </mxGeometry>
        </mxCell>
        <mxCell id="BuyT55-vh_InaUNFN4G4-46" value="8" style="text;html=1;align=center;verticalAlign=middle;whiteSpace=wrap;rounded=0;" vertex="1" parent="1">
          <mxGeometry x="1888" y="658.5" width="10" height="10" as="geometry" />
        </mxCell>
        <mxCell id="BuyT55-vh_InaUNFN4G4-47" value="" style="endArrow=none;html=1;rounded=0;strokeWidth=3;" edge="1" parent="1">
          <mxGeometry width="50" height="50" relative="1" as="geometry">
            <mxPoint x="1878" y="670.5" as="sourcePoint" />
            <mxPoint x="1918" y="670.5" as="targetPoint" />
          </mxGeometry>
        </mxCell>
        <mxCell id="BuyT55-vh_InaUNFN4G4-48" value="ADDRESS_INCREMENTER" style="text;html=1;align=center;verticalAlign=middle;whiteSpace=wrap;rounded=0;" vertex="1" parent="1">
          <mxGeometry x="1268" y="480" width="120" height="20" as="geometry" />
        </mxCell>
        <mxCell id="BuyT55-vh_InaUNFN4G4-49" value="" style="endArrow=none;html=1;rounded=0;strokeWidth=3;" edge="1" parent="1">
          <mxGeometry width="50" height="50" relative="1" as="geometry">
            <mxPoint x="1388" y="610" as="sourcePoint" />
            <mxPoint x="1918" y="610" as="targetPoint" />
          </mxGeometry>
        </mxCell>
        <mxCell id="BuyT55-vh_InaUNFN4G4-50" value="clock" style="text;html=1;align=center;verticalAlign=middle;whiteSpace=wrap;rounded=0;" vertex="1" parent="1">
          <mxGeometry x="1198" y="605" width="50" height="20" as="geometry" />
        </mxCell>
        <mxCell id="BuyT55-vh_InaUNFN4G4-51" value="" style="endArrow=none;html=1;rounded=0;" edge="1" parent="1">
          <mxGeometry width="50" height="50" relative="1" as="geometry">
            <mxPoint x="1238" y="615" as="sourcePoint" />
            <mxPoint x="1268" y="615" as="targetPoint" />
          </mxGeometry>
        </mxCell>
        <mxCell id="BuyT55-vh_InaUNFN4G4-52" value="reset" style="text;html=1;align=center;verticalAlign=middle;whiteSpace=wrap;rounded=0;" vertex="1" parent="1">
          <mxGeometry x="1198" y="625" width="50" height="20" as="geometry" />
        </mxCell>
        <mxCell id="BuyT55-vh_InaUNFN4G4-53" value="" style="endArrow=none;html=1;rounded=0;" edge="1" parent="1">
          <mxGeometry width="50" height="50" relative="1" as="geometry">
            <mxPoint x="1238" y="635" as="sourcePoint" />
            <mxPoint x="1268" y="635" as="targetPoint" />
          </mxGeometry>
        </mxCell>
        <mxCell id="BuyT55-vh_InaUNFN4G4-54" value="addressTerminalMode" style="text;html=1;align=center;verticalAlign=middle;whiteSpace=wrap;rounded=0;" vertex="1" parent="1">
          <mxGeometry x="1390" y="520" width="116" height="10" as="geometry" />
        </mxCell>
        <mxCell id="BuyT55-vh_InaUNFN4G4-55" value="addressClearEn" style="text;html=1;align=center;verticalAlign=middle;whiteSpace=wrap;rounded=0;" vertex="1" parent="1">
          <mxGeometry x="1182" y="520" width="84" height="20" as="geometry" />
        </mxCell>
        <mxCell id="BuyT55-vh_InaUNFN4G4-56" value="" style="endArrow=none;html=1;rounded=0;strokeWidth=3;" edge="1" parent="1">
          <mxGeometry width="50" height="50" relative="1" as="geometry">
            <mxPoint x="1196" y="510" as="sourcePoint" />
            <mxPoint x="1268" y="510" as="targetPoint" />
          </mxGeometry>
        </mxCell>
        <mxCell id="BuyT55-vh_InaUNFN4G4-57" value="dataCount" style="text;html=1;align=center;verticalAlign=middle;whiteSpace=wrap;rounded=0;" vertex="1" parent="1">
          <mxGeometry x="1138" y="505" width="60" height="10" as="geometry" />
        </mxCell>
        <mxCell id="BuyT55-vh_InaUNFN4G4-58" value="" style="verticalLabelPosition=bottom;shadow=0;dashed=0;align=center;html=1;verticalAlign=top;shape=mxgraph.electrical.abstract.dac;rounded=0;" vertex="1" parent="1">
          <mxGeometry x="1918" y="590" width="80" height="40" as="geometry" />
        </mxCell>
        <mxCell id="BuyT55-vh_InaUNFN4G4-59" value="address" style="text;html=1;align=center;verticalAlign=middle;whiteSpace=wrap;rounded=0;" vertex="1" parent="1">
          <mxGeometry x="1918" y="595" width="60" height="30" as="geometry" />
        </mxCell>
        <mxCell id="BuyT55-vh_InaUNFN4G4-60" value="" style="verticalLabelPosition=bottom;shadow=0;dashed=0;align=center;html=1;verticalAlign=top;shape=mxgraph.electrical.abstract.dac;rounded=0;" vertex="1" parent="1">
          <mxGeometry x="1918" y="650" width="80" height="40" as="geometry" />
        </mxCell>
        <mxCell id="BuyT55-vh_InaUNFN4G4-61" value="writeData" style="text;html=1;align=center;verticalAlign=middle;whiteSpace=wrap;rounded=0;" vertex="1" parent="1">
          <mxGeometry x="1918" y="655" width="60" height="30" as="geometry" />
        </mxCell>
        <mxCell id="BuyT55-vh_InaUNFN4G4-62" value="" style="verticalLabelPosition=bottom;shadow=0;dashed=0;align=center;html=1;verticalAlign=top;shape=mxgraph.electrical.abstract.dac;rounded=0;" vertex="1" parent="1">
          <mxGeometry x="1918" y="700" width="80" height="40" as="geometry" />
        </mxCell>
        <mxCell id="BuyT55-vh_InaUNFN4G4-63" value="writeEn" style="text;html=1;align=center;verticalAlign=middle;whiteSpace=wrap;rounded=0;" vertex="1" parent="1">
          <mxGeometry x="1918" y="705" width="60" height="30" as="geometry" />
        </mxCell>
        <mxCell id="BuyT55-vh_InaUNFN4G4-64" value="" style="verticalLabelPosition=bottom;shadow=0;dashed=0;align=center;html=1;verticalAlign=top;shape=mxgraph.electrical.abstract.dac;rounded=0;" vertex="1" parent="1">
          <mxGeometry x="1104" y="762.5" width="80" height="40" as="geometry" />
        </mxCell>
        <mxCell id="BuyT55-vh_InaUNFN4G4-65" value="data" style="text;html=1;align=center;verticalAlign=middle;whiteSpace=wrap;rounded=0;" vertex="1" parent="1">
          <mxGeometry x="1104" y="772.5" width="46" height="20" as="geometry" />
        </mxCell>
        <mxCell id="BuyT55-vh_InaUNFN4G4-66" value="" style="rounded=0;whiteSpace=wrap;html=1;" vertex="1" parent="1">
          <mxGeometry x="1268" y="757.5" width="120" height="165" as="geometry" />
        </mxCell>
        <mxCell id="BuyT55-vh_InaUNFN4G4-67" value="addressIncrementEn" style="text;html=1;align=center;verticalAlign=middle;whiteSpace=wrap;rounded=0;" vertex="1" parent="1">
          <mxGeometry x="1148" y="549" width="120" height="10" as="geometry" />
        </mxCell>
        <mxCell id="BuyT55-vh_InaUNFN4G4-68" value="" style="endArrow=none;html=1;rounded=0;strokeWidth=3;" edge="1" parent="1">
          <mxGeometry width="50" height="50" relative="1" as="geometry">
            <mxPoint x="1184" y="782.5" as="sourcePoint" />
            <mxPoint x="1268" y="782.5" as="targetPoint" />
          </mxGeometry>
        </mxCell>
        <mxCell id="BuyT55-vh_InaUNFN4G4-69" value="" style="endArrow=none;html=1;rounded=0;" edge="1" parent="1">
          <mxGeometry width="50" height="50" relative="1" as="geometry">
            <mxPoint x="1225.25" y="792.5" as="sourcePoint" />
            <mxPoint x="1235.25" y="772.5" as="targetPoint" />
          </mxGeometry>
        </mxCell>
        <mxCell id="BuyT55-vh_InaUNFN4G4-70" value="8" style="text;html=1;align=center;verticalAlign=middle;whiteSpace=wrap;rounded=0;" vertex="1" parent="1">
          <mxGeometry x="1221.25" y="769.5" width="10" height="10" as="geometry" />
        </mxCell>
        <mxCell id="BuyT55-vh_InaUNFN4G4-71" value="READ_LATCH" style="text;html=1;align=center;verticalAlign=middle;whiteSpace=wrap;rounded=0;" vertex="1" parent="1">
          <mxGeometry x="1268" y="737.5" width="120" height="20" as="geometry" />
        </mxCell>
        <mxCell id="BuyT55-vh_InaUNFN4G4-72" value="readEn" style="text;html=1;align=center;verticalAlign=middle;whiteSpace=wrap;rounded=0;" vertex="1" parent="1">
          <mxGeometry x="1228" y="812.5" width="40" height="22.5" as="geometry" />
        </mxCell>
        <mxCell id="BuyT55-vh_InaUNFN4G4-73" value="clock" style="text;html=1;align=center;verticalAlign=middle;whiteSpace=wrap;rounded=0;" vertex="1" parent="1">
          <mxGeometry x="1198" y="880" width="50" height="20" as="geometry" />
        </mxCell>
        <mxCell id="BuyT55-vh_InaUNFN4G4-74" value="" style="endArrow=none;html=1;rounded=0;" edge="1" parent="1">
          <mxGeometry width="50" height="50" relative="1" as="geometry">
            <mxPoint x="1238" y="890" as="sourcePoint" />
            <mxPoint x="1268" y="890" as="targetPoint" />
          </mxGeometry>
        </mxCell>
        <mxCell id="BuyT55-vh_InaUNFN4G4-75" value="reset" style="text;html=1;align=center;verticalAlign=middle;whiteSpace=wrap;rounded=0;" vertex="1" parent="1">
          <mxGeometry x="1198" y="900" width="50" height="20" as="geometry" />
        </mxCell>
        <mxCell id="BuyT55-vh_InaUNFN4G4-76" value="" style="endArrow=none;html=1;rounded=0;" edge="1" parent="1">
          <mxGeometry width="50" height="50" relative="1" as="geometry">
            <mxPoint x="1238" y="910" as="sourcePoint" />
            <mxPoint x="1268" y="910" as="targetPoint" />
          </mxGeometry>
        </mxCell>
        <mxCell id="BuyT55-vh_InaUNFN4G4-77" value="" style="endArrow=none;html=1;rounded=0;" edge="1" parent="1">
          <mxGeometry width="50" height="50" relative="1" as="geometry">
            <mxPoint x="1441.75" y="789.5" as="sourcePoint" />
            <mxPoint x="1451.75" y="769.5" as="targetPoint" />
          </mxGeometry>
        </mxCell>
        <mxCell id="BuyT55-vh_InaUNFN4G4-78" value="8" style="text;html=1;align=center;verticalAlign=middle;whiteSpace=wrap;rounded=0;" vertex="1" parent="1">
          <mxGeometry x="1437.5" y="765" width="10" height="10" as="geometry" />
        </mxCell>
        <mxCell id="BuyT55-vh_InaUNFN4G4-79" value="readData" style="text;html=1;align=center;verticalAlign=middle;whiteSpace=wrap;rounded=0;" vertex="1" parent="1">
          <mxGeometry x="1451.75" y="762.5" width="60" height="20" as="geometry" />
        </mxCell>
        <mxCell id="BuyT55-vh_InaUNFN4G4-80" value="" style="endArrow=none;html=1;rounded=0;" edge="1" parent="1">
          <mxGeometry width="50" height="50" relative="1" as="geometry">
            <mxPoint x="1388" y="530" as="sourcePoint" />
            <mxPoint x="820" y="90" as="targetPoint" />
            <Array as="points">
              <mxPoint x="1890" y="530" />
              <mxPoint x="1890" y="-110" />
              <mxPoint x="730" y="-110" />
              <mxPoint x="730" y="90" />
            </Array>
          </mxGeometry>
        </mxCell>
        <mxCell id="BuyT55-vh_InaUNFN4G4-81" value="" style="endArrow=none;html=1;rounded=0;" edge="1" parent="1">
          <mxGeometry width="50" height="50" relative="1" as="geometry">
            <mxPoint x="940" y="90" as="sourcePoint" />
            <mxPoint x="1268" y="540" as="targetPoint" />
            <Array as="points">
              <mxPoint x="1040" y="90" />
              <mxPoint x="1040" y="540" />
            </Array>
          </mxGeometry>
        </mxCell>
        <mxCell id="BuyT55-vh_InaUNFN4G4-82" value="" style="endArrow=none;html=1;rounded=0;" edge="1" parent="1">
          <mxGeometry width="50" height="50" relative="1" as="geometry">
            <mxPoint x="940" y="100" as="sourcePoint" />
            <mxPoint x="1268" y="830" as="targetPoint" />
            <Array as="points">
              <mxPoint x="1030" y="100" />
              <mxPoint x="1030" y="830" />
            </Array>
          </mxGeometry>
        </mxCell>
        <mxCell id="BuyT55-vh_InaUNFN4G4-83" value="" style="endArrow=none;html=1;rounded=0;" edge="1" parent="1">
          <mxGeometry width="50" height="50" relative="1" as="geometry">
            <mxPoint x="940" y="110" as="sourcePoint" />
            <mxPoint x="1918" y="720" as="targetPoint" />
            <Array as="points">
              <mxPoint x="1020" y="110" />
              <mxPoint x="1020" y="720" />
            </Array>
          </mxGeometry>
        </mxCell>
        <mxCell id="BuyT55-vh_InaUNFN4G4-84" value="" style="endArrow=none;html=1;rounded=0;strokeWidth=3;" edge="1" parent="1">
          <mxGeometry width="50" height="50" relative="1" as="geometry">
            <mxPoint x="1388" y="780" as="sourcePoint" />
            <mxPoint x="2070" y="320" as="targetPoint" />
            <Array as="points">
              <mxPoint x="2040" y="780" />
              <mxPoint x="2040" y="320" />
            </Array>
          </mxGeometry>
        </mxCell>
        <mxCell id="BuyT55-vh_InaUNFN4G4-85" value="" style="endArrow=none;html=1;rounded=0;strokeWidth=3;" edge="1" parent="1">
          <mxGeometry width="50" height="50" relative="1" as="geometry">
            <mxPoint x="1730" y="300" as="sourcePoint" />
            <mxPoint x="2070" y="300" as="targetPoint" />
          </mxGeometry>
        </mxCell>
        <mxCell id="BuyT55-vh_InaUNFN4G4-86" value="" style="endArrow=none;html=1;rounded=0;" edge="1" parent="1">
          <mxGeometry width="50" height="50" relative="1" as="geometry">
            <mxPoint x="1764.25" y="310" as="sourcePoint" />
            <mxPoint x="1774.25" y="290" as="targetPoint" />
          </mxGeometry>
        </mxCell>
        <mxCell id="BuyT55-vh_InaUNFN4G4-87" value="8" style="text;html=1;align=center;verticalAlign=middle;whiteSpace=wrap;rounded=0;" vertex="1" parent="1">
          <mxGeometry x="1760" y="285.5" width="10" height="10" as="geometry" />
        </mxCell>
        <mxCell id="BuyT55-vh_InaUNFN4G4-88" value="headerData" style="text;html=1;align=center;verticalAlign=middle;whiteSpace=wrap;rounded=0;" vertex="1" parent="1">
          <mxGeometry x="1774.25" y="283" width="60" height="20" as="geometry" />
        </mxCell>
        <mxCell id="BuyT55-vh_InaUNFN4G4-89" value="" style="endArrow=none;html=1;rounded=0;" edge="1" parent="1">
          <mxGeometry width="50" height="50" relative="1" as="geometry">
            <mxPoint x="2069.75" y="290" as="sourcePoint" />
            <mxPoint x="2069.75" y="290" as="targetPoint" />
            <Array as="points">
              <mxPoint x="2089.75" y="300" />
              <mxPoint x="2089.75" y="320" />
              <mxPoint x="2069.75" y="330" />
            </Array>
          </mxGeometry>
        </mxCell>
        <mxCell id="BuyT55-vh_InaUNFN4G4-90" value="0" style="text;html=1;align=center;verticalAlign=middle;whiteSpace=wrap;rounded=0;" vertex="1" parent="1">
          <mxGeometry x="2069.75" y="295" width="10" height="10" as="geometry" />
        </mxCell>
        <mxCell id="BuyT55-vh_InaUNFN4G4-91" value="1" style="text;html=1;align=center;verticalAlign=middle;whiteSpace=wrap;rounded=0;" vertex="1" parent="1">
          <mxGeometry x="2069.75" y="312.5" width="10" height="10" as="geometry" />
        </mxCell>
        <mxCell id="BuyT55-vh_InaUNFN4G4-92" value="" style="endArrow=none;html=1;rounded=0;" edge="1" parent="1">
          <mxGeometry width="50" height="50" relative="1" as="geometry">
            <mxPoint x="2104" y="319.5" as="sourcePoint" />
            <mxPoint x="2114" y="299.5" as="targetPoint" />
          </mxGeometry>
        </mxCell>
        <mxCell id="BuyT55-vh_InaUNFN4G4-93" value="8" style="text;html=1;align=center;verticalAlign=middle;whiteSpace=wrap;rounded=0;" vertex="1" parent="1">
          <mxGeometry x="2099.75" y="295" width="10" height="10" as="geometry" />
        </mxCell>
        <mxCell id="BuyT55-vh_InaUNFN4G4-94" value="dataSelect" style="text;html=1;align=center;verticalAlign=middle;whiteSpace=wrap;rounded=0;" vertex="1" parent="1">
          <mxGeometry x="2002" y="230" width="77.75" height="10" as="geometry" />
        </mxCell>
        <mxCell id="BuyT55-vh_InaUNFN4G4-95" value="" style="endArrow=none;html=1;rounded=0;" edge="1" parent="1">
          <mxGeometry width="50" height="50" relative="1" as="geometry">
            <mxPoint x="2079.75" y="295" as="sourcePoint" />
            <mxPoint x="940" y="120" as="targetPoint" />
            <Array as="points">
              <mxPoint x="2080" y="240" />
              <mxPoint x="1450" y="240" />
              <mxPoint x="1450" y="270" />
              <mxPoint x="1010" y="270" />
              <mxPoint x="1010" y="120" />
            </Array>
          </mxGeometry>
        </mxCell>
        <mxCell id="BuyT55-vh_InaUNFN4G4-96" value="" style="endArrow=none;html=1;rounded=0;strokeWidth=3;" edge="1" parent="1">
          <mxGeometry width="50" height="50" relative="1" as="geometry">
            <mxPoint x="2090" y="310" as="sourcePoint" />
            <mxPoint x="2320" y="310" as="targetPoint" />
          </mxGeometry>
        </mxCell>
        <mxCell id="BuyT55-vh_InaUNFN4G4-97" value="" style="rounded=0;whiteSpace=wrap;html=1;" vertex="1" parent="1">
          <mxGeometry x="2320" y="230" width="120" height="170" as="geometry" />
        </mxCell>
        <mxCell id="BuyT55-vh_InaUNFN4G4-98" value="UART_TRANSMITTER" style="text;html=1;align=center;verticalAlign=middle;whiteSpace=wrap;rounded=0;" vertex="1" parent="1">
          <mxGeometry x="2315" y="213" width="130" height="17" as="geometry" />
        </mxCell>
        <mxCell id="BuyT55-vh_InaUNFN4G4-99" value="UartTx" style="text;html=1;align=center;verticalAlign=middle;whiteSpace=wrap;rounded=0;" vertex="1" parent="1">
          <mxGeometry x="2390" y="380" width="50" height="20" as="geometry" />
        </mxCell>
        <mxCell id="BuyT55-vh_InaUNFN4G4-100" value="" style="verticalLabelPosition=bottom;shadow=0;dashed=0;align=center;html=1;verticalAlign=top;shape=mxgraph.electrical.abstract.dac;rounded=0;" vertex="1" parent="1">
          <mxGeometry x="1918" y="540" width="112" height="40" as="geometry" />
        </mxCell>
        <mxCell id="BuyT55-vh_InaUNFN4G4-101" value="sevenSegmentHex" style="text;html=1;align=center;verticalAlign=middle;whiteSpace=wrap;rounded=0;" vertex="1" parent="1">
          <mxGeometry x="1918" y="545" width="100" height="30" as="geometry" />
        </mxCell>
        <mxCell id="BuyT55-vh_InaUNFN4G4-102" value="" style="ellipse;whiteSpace=wrap;html=1;aspect=fixed;fillColor=#000000;" vertex="1" parent="1">
          <mxGeometry x="1756" y="606" width="8" height="8" as="geometry" />
        </mxCell>
        <mxCell id="BuyT55-vh_InaUNFN4G4-103" value="" style="endArrow=none;html=1;rounded=0;strokeWidth=3;" edge="1" parent="1">
          <mxGeometry width="50" height="50" relative="1" as="geometry">
            <mxPoint x="1760" y="609" as="sourcePoint" />
            <mxPoint x="1780" y="560" as="targetPoint" />
            <Array as="points">
              <mxPoint x="1760" y="560" />
            </Array>
          </mxGeometry>
        </mxCell>
        <mxCell id="BuyT55-vh_InaUNFN4G4-104" value="" style="endArrow=none;html=1;rounded=0;" edge="1" parent="1">
          <mxGeometry width="50" height="50" relative="1" as="geometry">
            <mxPoint x="1776" y="570" as="sourcePoint" />
            <mxPoint x="1776" y="550" as="targetPoint" />
            <Array as="points">
              <mxPoint x="1780.25" y="560" />
            </Array>
          </mxGeometry>
        </mxCell>
        <mxCell id="BuyT55-vh_InaUNFN4G4-105" value="" style="endArrow=none;html=1;rounded=0;" edge="1" parent="1">
          <mxGeometry width="50" height="50" relative="1" as="geometry">
            <mxPoint x="1780" y="570" as="sourcePoint" />
            <mxPoint x="1780" y="550" as="targetPoint" />
            <Array as="points">
              <mxPoint x="1784.25" y="560" />
            </Array>
          </mxGeometry>
        </mxCell>
        <mxCell id="BuyT55-vh_InaUNFN4G4-106" value="" style="endArrow=none;html=1;rounded=0;strokeWidth=3;" edge="1" parent="1">
          <mxGeometry width="50" height="50" relative="1" as="geometry">
            <mxPoint x="1784" y="560" as="sourcePoint" />
            <mxPoint x="1918" y="560" as="targetPoint" />
          </mxGeometry>
        </mxCell>
        <mxCell id="BuyT55-vh_InaUNFN4G4-107" value="" style="endArrow=none;html=1;rounded=0;" edge="1" parent="1">
          <mxGeometry width="50" height="50" relative="1" as="geometry">
            <mxPoint x="1838.25" y="571.5" as="sourcePoint" />
            <mxPoint x="1848.25" y="551.5" as="targetPoint" />
          </mxGeometry>
        </mxCell>
        <mxCell id="BuyT55-vh_InaUNFN4G4-108" value="16" style="text;html=1;align=center;verticalAlign=middle;whiteSpace=wrap;rounded=0;" vertex="1" parent="1">
          <mxGeometry x="1834.25" y="548.5" width="10" height="10" as="geometry" />
        </mxCell>
        <mxCell id="BuyT55-vh_InaUNFN4G4-109" value="" style="endArrow=none;html=1;rounded=0;" edge="1" parent="1">
          <mxGeometry width="50" height="50" relative="1" as="geometry">
            <mxPoint x="2440" y="240" as="sourcePoint" />
            <mxPoint x="2560" y="240" as="targetPoint" />
          </mxGeometry>
        </mxCell>
        <mxCell id="BuyT55-vh_InaUNFN4G4-110" value="" style="verticalLabelPosition=bottom;shadow=0;dashed=0;align=center;html=1;verticalAlign=top;shape=mxgraph.electrical.abstract.dac;rounded=0;" vertex="1" parent="1">
          <mxGeometry x="2560" y="220" width="80" height="40" as="geometry" />
        </mxCell>
        <mxCell id="BuyT55-vh_InaUNFN4G4-111" value="uartTx" style="text;html=1;align=center;verticalAlign=middle;whiteSpace=wrap;rounded=0;" vertex="1" parent="1">
          <mxGeometry x="2560" y="225" width="60" height="30" as="geometry" />
        </mxCell>
        <mxCell id="BuyT55-vh_InaUNFN4G4-112" value="dataOut" style="text;html=1;align=center;verticalAlign=middle;whiteSpace=wrap;rounded=0;" vertex="1" parent="1">
          <mxGeometry x="2390" y="230" width="50" height="20" as="geometry" />
        </mxCell>
        <mxCell id="BuyT55-vh_InaUNFN4G4-113" value="dataIn" style="text;html=1;align=center;verticalAlign=middle;whiteSpace=wrap;rounded=0;" vertex="1" parent="1">
          <mxGeometry x="2320" y="300" width="40" height="20" as="geometry" />
        </mxCell>
        <mxCell id="BuyT55-vh_InaUNFN4G4-114" value="" style="endArrow=none;html=1;rounded=0;" edge="1" parent="1">
          <mxGeometry width="50" height="50" relative="1" as="geometry">
            <mxPoint x="2290" y="356" as="sourcePoint" />
            <mxPoint x="2330" y="356" as="targetPoint" />
          </mxGeometry>
        </mxCell>
        <mxCell id="BuyT55-vh_InaUNFN4G4-115" value="clock" style="text;html=1;align=center;verticalAlign=middle;whiteSpace=wrap;rounded=0;" vertex="1" parent="1">
          <mxGeometry x="2260" y="340" width="30" height="30" as="geometry" />
        </mxCell>
        <mxCell id="BuyT55-vh_InaUNFN4G4-116" value="" style="endArrow=none;html=1;rounded=0;" edge="1" parent="1">
          <mxGeometry width="50" height="50" relative="1" as="geometry">
            <mxPoint x="2290" y="386" as="sourcePoint" />
            <mxPoint x="2330" y="386" as="targetPoint" />
          </mxGeometry>
        </mxCell>
        <mxCell id="BuyT55-vh_InaUNFN4G4-117" value="reset" style="text;html=1;align=center;verticalAlign=middle;whiteSpace=wrap;rounded=0;" vertex="1" parent="1">
          <mxGeometry x="2260" y="370" width="30" height="30" as="geometry" />
        </mxCell>
        <mxCell id="BuyT55-vh_InaUNFN4G4-118" value="clock" style="text;html=1;align=center;verticalAlign=middle;whiteSpace=wrap;rounded=0;" vertex="1" parent="1">
          <mxGeometry x="2320" y="340" width="60" height="30" as="geometry" />
        </mxCell>
        <mxCell id="BuyT55-vh_InaUNFN4G4-119" value="reset" style="text;html=1;align=center;verticalAlign=middle;whiteSpace=wrap;rounded=0;" vertex="1" parent="1">
          <mxGeometry x="2320" y="369" width="60" height="30" as="geometry" />
        </mxCell>
        <mxCell id="BuyT55-vh_InaUNFN4G4-120" value="" style="endArrow=none;html=1;rounded=0;" edge="1" parent="1">
          <mxGeometry width="50" height="50" relative="1" as="geometry">
            <mxPoint x="2440" y="280" as="sourcePoint" />
            <mxPoint x="820" y="100" as="targetPoint" />
            <Array as="points">
              <mxPoint x="2650" y="280" />
              <mxPoint x="2650" y="-120" />
              <mxPoint x="720" y="-120" />
              <mxPoint x="720" y="100" />
            </Array>
          </mxGeometry>
        </mxCell>
        <mxCell id="BuyT55-vh_InaUNFN4G4-121" value="txComplete" style="text;html=1;align=center;verticalAlign=middle;whiteSpace=wrap;rounded=0;" vertex="1" parent="1">
          <mxGeometry x="2380" y="270" width="60" height="20" as="geometry" />
        </mxCell>
        <mxCell id="BuyT55-vh_InaUNFN4G4-123" value="txEn" style="text;html=1;align=center;verticalAlign=middle;whiteSpace=wrap;rounded=0;" vertex="1" parent="1">
          <mxGeometry x="2320" y="232.5" width="40" height="15" as="geometry" />
        </mxCell>
        <mxCell id="BuyT55-vh_InaUNFN4G4-124" value="" style="endArrow=none;html=1;rounded=0;" edge="1" parent="1">
          <mxGeometry width="50" height="50" relative="1" as="geometry">
            <mxPoint x="940" y="130" as="sourcePoint" />
            <mxPoint x="2320" y="240" as="targetPoint" />
            <Array as="points">
              <mxPoint x="2280" y="130" />
              <mxPoint x="2280" y="240" />
            </Array>
          </mxGeometry>
        </mxCell>
        <mxCell id="BuyT55-vh_InaUNFN4G4-126" value="" style="endArrow=none;html=1;rounded=0;" edge="1" parent="1">
          <mxGeometry width="50" height="50" relative="1" as="geometry">
            <mxPoint x="780" y="119" as="sourcePoint" />
            <mxPoint x="820" y="119" as="targetPoint" />
          </mxGeometry>
        </mxCell>
        <mxCell id="BuyT55-vh_InaUNFN4G4-127" value="clock" style="text;html=1;align=center;verticalAlign=middle;whiteSpace=wrap;rounded=0;" vertex="1" parent="1">
          <mxGeometry x="750" y="103" width="30" height="30" as="geometry" />
        </mxCell>
        <mxCell id="BuyT55-vh_InaUNFN4G4-128" value="" style="endArrow=none;html=1;rounded=0;" edge="1" parent="1">
          <mxGeometry width="50" height="50" relative="1" as="geometry">
            <mxPoint x="780" y="149" as="sourcePoint" />
            <mxPoint x="820" y="149" as="targetPoint" />
          </mxGeometry>
        </mxCell>
        <mxCell id="BuyT55-vh_InaUNFN4G4-129" value="reset" style="text;html=1;align=center;verticalAlign=middle;whiteSpace=wrap;rounded=0;" vertex="1" parent="1">
          <mxGeometry x="750" y="133" width="30" height="30" as="geometry" />
        </mxCell>
      </root>
    </mxGraphModel>
  </diagram>
</mxfile>
